<mxfile host="app.diagrams.net" agent="Mozilla/5.0 (Windows NT 10.0; Win64; x64) AppleWebKit/537.36 (KHTML, like Gecko) Chrome/127.0.0.0 Safari/537.36" version="24.7.14">
  <diagram name="第 1 页" id="vafPdIi_Th9FfxXMxZau">
    <mxGraphModel dx="1050" dy="565" grid="0" gridSize="10" guides="1" tooltips="1" connect="1" arrows="1" fold="1" page="0" pageScale="1" pageWidth="827" pageHeight="1169" math="0" shadow="0">
      <root>
        <mxCell id="0" />
        <mxCell id="1" parent="0" />
        <mxCell id="jKALueb9ZFtD-8lrNwtj-2" value="" style="shape=cylinder3;whiteSpace=wrap;html=1;boundedLbl=1;backgroundOutline=1;size=15;fillColor=#d5e8d4;strokeColor=#82b366;" vertex="1" parent="1">
          <mxGeometry x="56" y="183" width="60" height="80" as="geometry" />
        </mxCell>
        <mxCell id="jKALueb9ZFtD-8lrNwtj-3" value="" style="shape=cylinder3;whiteSpace=wrap;html=1;boundedLbl=1;backgroundOutline=1;size=15;fillColor=#d5e8d4;strokeColor=#82b366;" vertex="1" parent="1">
          <mxGeometry x="116" y="183" width="60" height="80" as="geometry" />
        </mxCell>
        <mxCell id="jKALueb9ZFtD-8lrNwtj-4" value="" style="shape=cylinder3;whiteSpace=wrap;html=1;boundedLbl=1;backgroundOutline=1;size=15;fillColor=#d5e8d4;strokeColor=#82b366;" vertex="1" parent="1">
          <mxGeometry x="176" y="185" width="60" height="80" as="geometry" />
        </mxCell>
        <mxCell id="jKALueb9ZFtD-8lrNwtj-5" value="" style="shape=cylinder3;whiteSpace=wrap;html=1;boundedLbl=1;backgroundOutline=1;size=15;fillColor=#d5e8d4;strokeColor=#82b366;" vertex="1" parent="1">
          <mxGeometry x="236" y="185" width="60" height="80" as="geometry" />
        </mxCell>
        <mxCell id="jKALueb9ZFtD-8lrNwtj-6" value="" style="shape=cylinder3;whiteSpace=wrap;html=1;boundedLbl=1;backgroundOutline=1;size=15;fillColor=#d5e8d4;strokeColor=#82b366;" vertex="1" parent="1">
          <mxGeometry x="296" y="185" width="60" height="80" as="geometry" />
        </mxCell>
        <mxCell id="jKALueb9ZFtD-8lrNwtj-7" value="" style="shape=cylinder3;whiteSpace=wrap;html=1;boundedLbl=1;backgroundOutline=1;size=15;fillColor=#d5e8d4;strokeColor=#82b366;" vertex="1" parent="1">
          <mxGeometry x="356" y="185" width="60" height="80" as="geometry" />
        </mxCell>
        <mxCell id="jKALueb9ZFtD-8lrNwtj-8" value="" style="shape=cylinder3;whiteSpace=wrap;html=1;boundedLbl=1;backgroundOutline=1;size=15;fillColor=#d5e8d4;strokeColor=#82b366;" vertex="1" parent="1">
          <mxGeometry x="416" y="187" width="60" height="80" as="geometry" />
        </mxCell>
        <mxCell id="jKALueb9ZFtD-8lrNwtj-9" value="" style="shape=cylinder3;whiteSpace=wrap;html=1;boundedLbl=1;backgroundOutline=1;size=15;fillColor=#d5e8d4;strokeColor=#82b366;" vertex="1" parent="1">
          <mxGeometry x="476" y="187" width="60" height="80" as="geometry" />
        </mxCell>
        <mxCell id="jKALueb9ZFtD-8lrNwtj-10" value="" style="shape=cylinder3;whiteSpace=wrap;html=1;boundedLbl=1;backgroundOutline=1;size=15;fillColor=#d5e8d4;strokeColor=#82b366;" vertex="1" parent="1">
          <mxGeometry x="536" y="189" width="60" height="80" as="geometry" />
        </mxCell>
        <mxCell id="jKALueb9ZFtD-8lrNwtj-11" value="" style="shape=cylinder3;whiteSpace=wrap;html=1;boundedLbl=1;backgroundOutline=1;size=15;fillColor=#d5e8d4;strokeColor=#82b366;" vertex="1" parent="1">
          <mxGeometry x="596" y="189" width="60" height="80" as="geometry" />
        </mxCell>
        <mxCell id="jKALueb9ZFtD-8lrNwtj-12" value="" style="shape=cylinder3;whiteSpace=wrap;html=1;boundedLbl=1;backgroundOutline=1;size=15;fillColor=#d5e8d4;strokeColor=#82b366;" vertex="1" parent="1">
          <mxGeometry x="656" y="191" width="60" height="80" as="geometry" />
        </mxCell>
        <mxCell id="jKALueb9ZFtD-8lrNwtj-13" value="" style="shape=cylinder3;whiteSpace=wrap;html=1;boundedLbl=1;backgroundOutline=1;size=15;fillColor=#d5e8d4;strokeColor=#82b366;" vertex="1" parent="1">
          <mxGeometry x="716" y="191" width="60" height="80" as="geometry" />
        </mxCell>
        <mxCell id="jKALueb9ZFtD-8lrNwtj-14" value="" style="rounded=0;whiteSpace=wrap;html=1;fillColor=#ffe6cc;strokeColor=#d79b00;" vertex="1" parent="1">
          <mxGeometry x="59" y="109" width="59" height="30" as="geometry" />
        </mxCell>
        <mxCell id="jKALueb9ZFtD-8lrNwtj-15" value="" style="rounded=0;whiteSpace=wrap;html=1;fillColor=#ffe6cc;strokeColor=#d79b00;" vertex="1" parent="1">
          <mxGeometry x="118" y="109" width="59" height="30" as="geometry" />
        </mxCell>
        <mxCell id="jKALueb9ZFtD-8lrNwtj-16" value="" style="rounded=0;whiteSpace=wrap;html=1;fillColor=#ffe6cc;strokeColor=#d79b00;" vertex="1" parent="1">
          <mxGeometry x="176" y="109" width="59" height="30" as="geometry" />
        </mxCell>
        <mxCell id="jKALueb9ZFtD-8lrNwtj-17" value="" style="rounded=0;whiteSpace=wrap;html=1;fillColor=#ffe6cc;strokeColor=#d79b00;" vertex="1" parent="1">
          <mxGeometry x="235" y="109" width="59" height="30" as="geometry" />
        </mxCell>
        <mxCell id="jKALueb9ZFtD-8lrNwtj-18" value="" style="rounded=0;whiteSpace=wrap;html=1;fillColor=#ffe6cc;strokeColor=#d79b00;" vertex="1" parent="1">
          <mxGeometry x="294" y="109" width="59" height="30" as="geometry" />
        </mxCell>
        <mxCell id="jKALueb9ZFtD-8lrNwtj-19" value="" style="rounded=0;whiteSpace=wrap;html=1;fillColor=#ffe6cc;strokeColor=#d79b00;" vertex="1" parent="1">
          <mxGeometry x="353" y="109" width="59" height="30" as="geometry" />
        </mxCell>
        <mxCell id="jKALueb9ZFtD-8lrNwtj-20" value="" style="rounded=0;whiteSpace=wrap;html=1;fillColor=#ffe6cc;strokeColor=#d79b00;" vertex="1" parent="1">
          <mxGeometry x="411" y="109" width="59" height="30" as="geometry" />
        </mxCell>
        <mxCell id="jKALueb9ZFtD-8lrNwtj-21" value="" style="rounded=0;whiteSpace=wrap;html=1;fillColor=#ffe6cc;strokeColor=#d79b00;" vertex="1" parent="1">
          <mxGeometry x="470" y="109" width="59" height="30" as="geometry" />
        </mxCell>
        <mxCell id="jKALueb9ZFtD-8lrNwtj-22" value="" style="rounded=0;whiteSpace=wrap;html=1;fillColor=#ffe6cc;strokeColor=#d79b00;" vertex="1" parent="1">
          <mxGeometry x="529" y="109" width="59" height="30" as="geometry" />
        </mxCell>
        <mxCell id="jKALueb9ZFtD-8lrNwtj-23" value="" style="rounded=0;whiteSpace=wrap;html=1;fillColor=#ffe6cc;strokeColor=#d79b00;" vertex="1" parent="1">
          <mxGeometry x="588" y="109" width="59" height="30" as="geometry" />
        </mxCell>
        <mxCell id="jKALueb9ZFtD-8lrNwtj-24" value="" style="rounded=0;whiteSpace=wrap;html=1;fillColor=#ffe6cc;strokeColor=#d79b00;" vertex="1" parent="1">
          <mxGeometry x="646" y="109" width="59" height="30" as="geometry" />
        </mxCell>
        <mxCell id="jKALueb9ZFtD-8lrNwtj-25" value="" style="rounded=0;whiteSpace=wrap;html=1;fillColor=#ffe6cc;strokeColor=#d79b00;" vertex="1" parent="1">
          <mxGeometry x="705" y="109" width="59" height="30" as="geometry" />
        </mxCell>
        <mxCell id="jKALueb9ZFtD-8lrNwtj-26" value="inex0" style="text;html=1;align=center;verticalAlign=middle;resizable=0;points=[];autosize=1;strokeColor=none;fillColor=none;" vertex="1" parent="1">
          <mxGeometry x="61" y="258" width="47" height="26" as="geometry" />
        </mxCell>
        <mxCell id="jKALueb9ZFtD-8lrNwtj-27" value="inex1" style="text;html=1;align=center;verticalAlign=middle;resizable=0;points=[];autosize=1;strokeColor=none;fillColor=none;" vertex="1" parent="1">
          <mxGeometry x="118" y="261" width="47" height="26" as="geometry" />
        </mxCell>
        <mxCell id="jKALueb9ZFtD-8lrNwtj-28" value="inex2" style="text;html=1;align=center;verticalAlign=middle;resizable=0;points=[];autosize=1;strokeColor=none;fillColor=none;" vertex="1" parent="1">
          <mxGeometry x="182" y="263" width="47" height="26" as="geometry" />
        </mxCell>
        <mxCell id="jKALueb9ZFtD-8lrNwtj-29" value="inex3" style="text;html=1;align=center;verticalAlign=middle;resizable=0;points=[];autosize=1;strokeColor=none;fillColor=none;" vertex="1" parent="1">
          <mxGeometry x="242.5" y="265" width="47" height="26" as="geometry" />
        </mxCell>
        <mxCell id="jKALueb9ZFtD-8lrNwtj-30" value="inex4" style="text;html=1;align=center;verticalAlign=middle;resizable=0;points=[];autosize=1;strokeColor=none;fillColor=none;" vertex="1" parent="1">
          <mxGeometry x="306" y="263" width="47" height="26" as="geometry" />
        </mxCell>
        <mxCell id="jKALueb9ZFtD-8lrNwtj-31" value="inex5" style="text;html=1;align=center;verticalAlign=middle;resizable=0;points=[];autosize=1;strokeColor=none;fillColor=none;" vertex="1" parent="1">
          <mxGeometry x="364" y="263" width="47" height="26" as="geometry" />
        </mxCell>
        <mxCell id="jKALueb9ZFtD-8lrNwtj-32" value="inex6" style="text;html=1;align=center;verticalAlign=middle;resizable=0;points=[];autosize=1;strokeColor=none;fillColor=none;" vertex="1" parent="1">
          <mxGeometry x="426" y="265" width="47" height="26" as="geometry" />
        </mxCell>
        <mxCell id="jKALueb9ZFtD-8lrNwtj-33" value="inex7" style="text;html=1;align=center;verticalAlign=middle;resizable=0;points=[];autosize=1;strokeColor=none;fillColor=none;" vertex="1" parent="1">
          <mxGeometry x="485" y="265" width="47" height="26" as="geometry" />
        </mxCell>
        <mxCell id="jKALueb9ZFtD-8lrNwtj-34" value="inex8" style="text;html=1;align=center;verticalAlign=middle;resizable=0;points=[];autosize=1;strokeColor=none;fillColor=none;" vertex="1" parent="1">
          <mxGeometry x="542.5" y="266" width="47" height="26" as="geometry" />
        </mxCell>
        <mxCell id="jKALueb9ZFtD-8lrNwtj-35" value="inex9" style="text;html=1;align=center;verticalAlign=middle;resizable=0;points=[];autosize=1;strokeColor=none;fillColor=none;" vertex="1" parent="1">
          <mxGeometry x="605" y="265" width="47" height="26" as="geometry" />
        </mxCell>
        <mxCell id="jKALueb9ZFtD-8lrNwtj-36" value="..." style="text;html=1;align=center;verticalAlign=middle;resizable=0;points=[];autosize=1;strokeColor=none;fillColor=none;" vertex="1" parent="1">
          <mxGeometry x="672.5" y="265" width="28" height="26" as="geometry" />
        </mxCell>
        <mxCell id="jKALueb9ZFtD-8lrNwtj-37" value="inex&amp;nbsp;&lt;span class=&quot;lark-record-clipboard&quot; data-lark-record-format=&quot;docx/text&quot; data-lark-record-data=&quot;{&amp;quot;rootId&amp;quot;:&amp;quot;NbrwdDbTHoJfUyxWMgtc8Vj1nZb&amp;quot;,&amp;quot;text&amp;quot;:{&amp;quot;initialAttributedTexts&amp;quot;:{&amp;quot;text&amp;quot;:{&amp;quot;0&amp;quot;:&amp;quot;NUM_BUSY_BUCKETS&amp;quot;},&amp;quot;attribs&amp;quot;:{&amp;quot;0&amp;quot;:&amp;quot;*0+g&amp;quot;}},&amp;quot;apool&amp;quot;:{&amp;quot;numToAttrib&amp;quot;:{&amp;quot;0&amp;quot;:[&amp;quot;author&amp;quot;,&amp;quot;7205516225223376900&amp;quot;]},&amp;quot;nextNum&amp;quot;:1}},&amp;quot;type&amp;quot;:&amp;quot;text&amp;quot;,&amp;quot;referenceRecordMap&amp;quot;:{},&amp;quot;extra&amp;quot;:{&amp;quot;channel&amp;quot;:&amp;quot;saas&amp;quot;,&amp;quot;pasteRandomId&amp;quot;:&amp;quot;4b382289-9000-4919-af5c-3ca2200f69d0&amp;quot;,&amp;quot;mention_page_title&amp;quot;:{},&amp;quot;external_mention_url&amp;quot;:{}},&amp;quot;isKeepQuoteContainer&amp;quot;:false,&amp;quot;isFromCode&amp;quot;:false,&amp;quot;selection&amp;quot;:[{&amp;quot;id&amp;quot;:56,&amp;quot;type&amp;quot;:&amp;quot;text&amp;quot;,&amp;quot;selection&amp;quot;:{&amp;quot;start&amp;quot;:14,&amp;quot;end&amp;quot;:30},&amp;quot;recordId&amp;quot;:&amp;quot;Iy7Rdq95To0RX2xxUrbcVoBxn9f&amp;quot;}],&amp;quot;payloadMap&amp;quot;:{},&amp;quot;isCut&amp;quot;:false}&quot;&gt;&lt;/span&gt;&lt;span style=&quot;background-color: initial;&quot;&gt;NUM_BUSY_BUCKETS&lt;/span&gt;" style="text;html=1;align=center;verticalAlign=middle;resizable=0;points=[];autosize=1;strokeColor=none;fillColor=none;" vertex="1" parent="1">
          <mxGeometry x="723" y="267" width="173" height="26" as="geometry" />
        </mxCell>
      </root>
    </mxGraphModel>
  </diagram>
</mxfile>
